#Comment line ignore any data following # character 
#Hierarchical Translation and Rotation (.htr) file 
[Header]	
#Header keywords are followed by a single value 
FileType HTR		#Single word string
DataType HTRS		#Translation followed by rotation and scale data
FileVersion 1		#integer
NumSegments 64		#integer
NumFrames 3		#integer
DataFrameRate 30		#integer, data frame rate in this file
EulerRotationOrder ZYX
CalibrationUnits mm
RotationUnits Degrees
GlobalAxisofGravity Y
BoneLengthAxis Y
ScaleFactor 1.00
[SegmentNames&Hierarchy]
#CHILD	PARENT
Pinger_Root GLOBAL
Pelvis Pinger_Root
L_Hip Pelvis
R_Hip Pelvis
Rear_Leg01 Pelvis
Spine1 Pelvis
L_Leg01 L_Hip
L_Leg02 L_Leg01
L_Leg03 L_Leg02
L_Foot L_Leg03
L_Toe1_01 L_Foot
L_Toe2_01 L_Foot
L_Toe3_01 L_Foot
planeAlignerLeft L_Foot
L_Toe1_02 L_Toe1_01
L_Toe1_03 L_Toe1_02
L_Toe2_02 L_Toe2_01
L_Toe2_03 L_Toe2_02
L_Toe3_02 L_Toe3_01
L_Toe3_03 L_Toe3_02
planeLockWeightLeft planeAlignerLeft
R_Leg01 R_Hip
R_Leg02 R_Leg01
R_Leg03 R_Leg02
R_Foot R_Leg03
planeAlignerRight R_Foot
R_Toe1_01 R_Foot
R_Toe2_01 R_Foot
R_Toe3_01 R_Foot
planeLockWeightRight planeAlignerRight
R_Toe1_02 R_Toe1_01
R_Toe1_03 R_Toe1_02
R_Toe2_02 R_Toe2_01
R_Toe2_03 R_Toe2_02
R_Toe3_02 R_Toe3_01
R_Toe3_03 R_Toe3_02
Rear_Leg02 Rear_Leg01
Rear_Leg03 Rear_Leg02
Rear_Leg04 Rear_Leg03
Rear_Foot Rear_Leg04
planeAlignerCenter Rear_Foot
Rear_Toe1_01 Rear_Foot
Rear_Toe2_01 Rear_Foot
Rear_Toe3_01 Rear_Foot
planeLockWeightCenter planeAlignerCenter
Rear_Toe1_02 Rear_Toe1_01
Rear_Toe1_03 Rear_Toe1_02
Rear_Toe2_02 Rear_Toe2_01
Rear_Toe2_03 Rear_Toe2_02
Rear_Toe3_02 Rear_Toe3_01
Rear_Toe3_03 Rear_Toe3_02
Back_Bone Spine1
Head Spine1
Motor_Bone Back_Bone
Ping_Mechanism Back_Bone
BN_LookIK Head
bottomMouth Head
L_Mouth01 Head
L_mouthFront Head
mouthGun Head
R_Mouth01 Head
R_mouthFront Head
TopMouth Head
weapon_bone Head
[BasePosition]
#SegmentName Tx, Ty, Tz, Rx, Ry, Rz, BoneLength
Pinger_Root 0.000000 0.000000 0.000000 -90.000000 0.000000 0.000000 10.000000 
Pelvis 0.000000 0.000000 0.000000 0.000000 0.000000 0.000000 10.000000 
L_Hip 0.000000 0.000000 0.000000 0.000000 0.000000 0.000000 10.000000 
R_Hip 0.000000 0.000000 0.000000 0.000000 0.000000 0.000000 10.000000 
Rear_Leg01 0.000000 0.000000 0.000000 0.000000 0.000000 0.000000 10.000000 
Spine1 0.000000 0.000000 0.000000 0.000000 0.000000 0.000000 10.000000 
L_Leg01 0.000000 0.000000 0.000000 0.000000 0.000000 0.000000 10.000000 
L_Leg02 0.000000 0.000000 0.000000 0.000000 0.000000 0.000000 10.000000 
L_Leg03 0.000000 0.000000 0.000000 0.000000 0.000000 0.000000 10.000000 
L_Foot 0.000000 0.000000 0.000000 0.000000 0.000000 0.000000 10.000000 
L_Toe1_01 0.000000 0.000000 0.000000 0.000000 0.000000 0.000000 10.000000 
L_Toe2_01 0.000000 0.000000 0.000000 0.000000 0.000000 0.000000 10.000000 
L_Toe3_01 0.000000 0.000000 0.000000 0.000000 0.000000 0.000000 10.000000 
planeAlignerLeft 0.000000 0.000000 0.000000 0.000000 0.000000 0.000000 10.000000 
L_Toe1_02 0.000000 0.000000 0.000000 0.000000 0.000000 0.000000 10.000000 
L_Toe1_03 0.000000 0.000000 0.000000 0.000000 0.000000 0.000000 10.000000 
L_Toe2_02 0.000000 0.000000 0.000000 0.000000 0.000000 0.000000 10.000000 
L_Toe2_03 0.000000 0.000000 0.000000 0.000000 0.000000 0.000000 10.000000 
L_Toe3_02 0.000000 0.000000 0.000000 0.000000 0.000000 0.000000 10.000000 
L_Toe3_03 0.000000 0.000000 0.000000 0.000000 0.000000 0.000000 10.000000 
planeLockWeightLeft 0.000000 0.000000 0.000000 0.000000 0.000000 0.000000 10.000000 
R_Leg01 0.000000 0.000000 0.000000 0.000000 0.000000 0.000000 10.000000 
R_Leg02 0.000000 0.000000 0.000000 0.000000 0.000000 0.000000 10.000000 
R_Leg03 0.000000 0.000000 0.000000 0.000000 0.000000 0.000000 10.000000 
R_Foot 0.000000 0.000000 0.000000 0.000000 0.000000 0.000000 10.000000 
planeAlignerRight 0.000000 0.000000 0.000000 0.000000 0.000000 0.000000 10.000000 
R_Toe1_01 0.000000 0.000000 0.000000 0.000000 0.000000 0.000000 10.000000 
R_Toe2_01 0.000000 0.000000 0.000000 0.000000 0.000000 0.000000 10.000000 
R_Toe3_01 0.000000 0.000000 0.000000 0.000000 0.000000 0.000000 10.000000 
planeLockWeightRight 0.000000 0.000000 0.000000 0.000000 0.000000 0.000000 10.000000 
R_Toe1_02 0.000000 0.000000 0.000000 0.000000 0.000000 0.000000 10.000000 
R_Toe1_03 0.000000 0.000000 0.000000 0.000000 0.000000 0.000000 10.000000 
R_Toe2_02 0.000000 0.000000 0.000000 0.000000 0.000000 0.000000 10.000000 
R_Toe2_03 0.000000 0.000000 0.000000 0.000000 0.000000 0.000000 10.000000 
R_Toe3_02 0.000000 0.000000 0.000000 0.000000 0.000000 0.000000 10.000000 
R_Toe3_03 0.000000 0.000000 0.000000 0.000000 0.000000 0.000000 10.000000 
Rear_Leg02 0.000000 0.000000 0.000000 0.000000 0.000000 0.000000 10.000000 
Rear_Leg03 0.000000 0.000000 0.000000 0.000000 0.000000 0.000000 10.000000 
Rear_Leg04 0.000000 0.000000 0.000000 0.000000 0.000000 0.000000 10.000000 
Rear_Foot 0.000000 0.000000 0.000000 0.000000 0.000000 0.000000 10.000000 
planeAlignerCenter 0.000000 0.000000 0.000000 0.000000 0.000000 0.000000 10.000000 
Rear_Toe1_01 0.000000 0.000000 0.000000 0.000000 0.000000 0.000000 10.000000 
Rear_Toe2_01 0.000000 0.000000 0.000000 0.000000 0.000000 0.000000 10.000000 
Rear_Toe3_01 0.000000 0.000000 0.000000 0.000000 0.000000 0.000000 10.000000 
planeLockWeightCenter 0.000000 0.000000 0.000000 0.000000 0.000000 0.000000 10.000000 
Rear_Toe1_02 0.000000 0.000000 0.000000 0.000000 0.000000 0.000000 10.000000 
Rear_Toe1_03 0.000000 0.000000 0.000000 0.000000 0.000000 0.000000 10.000000 
Rear_Toe2_02 0.000000 0.000000 0.000000 0.000000 0.000000 0.000000 10.000000 
Rear_Toe2_03 0.000000 0.000000 0.000000 0.000000 0.000000 0.000000 10.000000 
Rear_Toe3_02 0.000000 0.000000 0.000000 0.000000 0.000000 0.000000 10.000000 
Rear_Toe3_03 0.000000 0.000000 0.000000 0.000000 0.000000 0.000000 10.000000 
Back_Bone 0.000000 0.000000 0.000000 0.000000 0.000000 0.000000 10.000000 
Head 0.000000 0.000000 0.000000 0.000000 0.000000 0.000000 10.000000 
Motor_Bone 0.000000 0.000000 0.000000 0.000000 0.000000 0.000000 10.000000 
Ping_Mechanism 0.000000 0.000000 0.000000 0.000000 0.000000 0.000000 10.000000 
BN_LookIK 0.000000 0.000000 0.000000 0.000000 0.000000 0.000000 10.000000 
bottomMouth 0.000000 0.000000 0.000000 0.000000 0.000000 0.000000 10.000000 
L_Mouth01 0.000000 0.000000 0.000000 0.000000 0.000000 0.000000 10.000000 
L_mouthFront 0.000000 0.000000 0.000000 0.000000 0.000000 0.000000 10.000000 
mouthGun 0.000000 0.000000 0.000000 0.000000 0.000000 0.000000 10.000000 
R_Mouth01 0.000000 0.000000 0.000000 0.000000 0.000000 0.000000 10.000000 
R_mouthFront 0.000000 0.000000 0.000000 0.000000 0.000000 0.000000 10.000000 
TopMouth 0.000000 0.000000 0.000000 0.000000 0.000000 0.000000 10.000000 
weapon_bone 0.000000 0.000000 0.000000 0.000000 0.000000 0.000000 10.000000 
#Beginning of Data. Separated by tabs
#Fr	Tx	Ty	Tz	Rx	Ry	Rz	SF
[Pinger_Root]
29 0.000000 0.000000 0.000000 -0.000069 0.000031 47.570335 0.000000
30 0.000000 0.000000 0.000000 -0.000069 0.000032 50.221008 0.000000
31 0.000000 0.000000 0.000000 -0.000068 0.000034 52.881714 0.000000
[Pelvis]
29 -114.201775 257.899719 4393.182129 -164.431992 -75.347855 -171.567184 4402.227051
30 -143.615341 236.271667 4413.053223 -164.927124 -76.860352 -168.075836 4421.706055
31 -161.199707 215.009109 4421.761230 -161.928192 -78.884315 -168.612045 4429.919434
[L_Hip]
29 5.766392 125.831482 872.656799 160.158691 -45.484905 122.312202 881.701050
30 5.766392 125.831482 872.656799 160.158691 -45.484905 122.312202 881.701050
31 5.766392 125.831482 872.656799 160.158691 -45.484905 122.312202 881.701050
[R_Hip]
29 5.765438 125.836372 -872.654907 38.087841 49.812687 125.703735 881.699829
30 5.765438 125.836372 -872.654907 38.087841 49.812687 125.703735 881.699829
31 5.765438 125.836372 -872.654907 38.087841 49.812687 125.703735 881.699829
[Rear_Leg01]
29 -192.298416 -925.602966 -0.001907 154.937088 4.662984 -140.880829 945.367432
30 -192.298416 -925.602966 -0.001907 160.098236 0.597061 -142.970169 945.367432
31 -192.298416 -925.602966 -0.001907 165.140884 -2.823962 -146.781387 945.367432
[Spine1]
29 290.604584 5.007505 0.000477 7.037573 9.557117 21.530846 290.647736
30 290.604584 5.007505 0.000477 2.724886 10.362840 22.164104 290.647736
31 290.604584 5.007505 0.000477 -1.568274 10.356016 21.983063 290.647736
[L_Leg01]
29 761.932007 -0.002384 -0.069261 25.865694 1.701607 0.575170 761.932068
30 761.932007 -0.002384 -0.069261 26.269779 -6.647066 0.794070 761.932068
31 761.932007 -0.002384 -0.069261 25.070074 -15.202635 1.698111 761.932068
[L_Leg02]
29 1441.140503 -0.000954 -0.000715 2.742404 -0.001761 -119.582695 1441.140503
30 1441.140503 -0.000954 -0.000715 2.311420 -0.078637 -120.891495 1441.140503
31 1441.140503 -0.000954 -0.000715 1.882302 -0.165336 -122.199692 1441.140503
[L_Leg03]
29 1686.963989 -0.000715 -0.000954 -0.049378 0.022015 123.193665 1686.963989
30 1686.963989 -0.000715 -0.000954 -0.036333 0.017275 120.824448 1686.963989
31 1686.963989 -0.000715 -0.000954 -0.023826 0.010594 117.308746 1686.963989
[L_Foot]
29 3041.570068 -30.715107 11.297464 -16.683758 12.592696 41.443233 3041.746094
30 3041.570068 -30.715107 11.297464 -16.549469 12.585638 42.632683 3041.746094
31 3041.570068 -30.715107 11.297464 -16.415352 12.575854 43.822048 3041.746094
[L_Toe1_01]
29 -188.216690 -224.732346 -21.137953 78.905884 -2.351829 -173.050705 293.899567
30 -188.216690 -224.732346 -21.137953 76.418404 -1.594991 -173.040649 293.899567
31 -188.216690 -224.732346 -21.137953 73.931755 -0.838433 -173.063461 293.899567
[L_Toe2_01]
29 200.746536 -219.926590 148.838394 -81.642189 -11.213023 -55.562889 332.896027
30 200.746536 -219.926590 148.838394 -80.299332 -8.554715 -56.157242 332.896027
31 200.746536 -219.926590 148.838394 -78.992134 -5.883584 -56.685318 332.896027
[L_Toe3_01]
29 188.832520 -219.859131 -191.078659 -92.617912 31.974760 -60.203815 347.140900
30 188.832520 -219.859131 -191.078659 -91.215668 34.831944 -59.087639 347.140900
31 188.832520 -219.859131 -191.078659 -89.691383 37.664379 -57.842098 347.140900
[planeAlignerLeft]
29 32.803345 -573.687012 -49.269516 -11.014407 -88.700500 -89.709946 576.732483
30 32.801971 -570.448547 -74.175476 -10.820975 -86.201103 -89.902679 576.185364
31 32.800594 -567.210144 -99.081367 -10.780948 -83.701759 -89.942223 576.732483
[L_Toe1_02]
29 413.761139 0.000477 0.000000 0.001385 -25.895372 0.001385 413.761139
30 413.761139 0.000477 0.000000 0.001384 -25.952026 0.001384 413.761139
31 413.761139 0.000477 0.000000 0.001384 -25.954283 0.001384 413.761139
[L_Toe1_03]
29 464.317322 0.000358 -0.000089 0.003969 55.601040 0.003969 464.317322
30 464.317322 0.000358 -0.000089 0.003980 55.696114 0.003980 464.317322
31 464.317322 0.000358 -0.000089 0.003990 55.791218 0.003990 464.317322
[L_Toe2_02]
29 342.235809 -0.000477 0.000238 0.001186 -73.107506 0.001186 342.235809
30 342.235809 -0.000477 0.000238 0.001187 -72.983788 0.001187 342.235809
31 342.235809 -0.000477 0.000238 0.001187 -72.860092 0.001187 342.235809
[L_Toe2_03]
29 420.210846 -0.000715 0.000000 -0.026352 87.322777 -0.022854 420.210846
30 420.210846 -0.000715 0.000000 -0.023712 87.000816 -0.020215 420.210846
31 420.210846 -0.000715 0.000000 -0.005911 86.569313 -0.003287 420.210846
[L_Toe3_02]
29 329.270111 0.000954 0.000000 0.001177 -81.610260 0.001177 329.270111
30 329.270111 0.000954 0.000000 0.001177 -81.599403 0.001177 329.270111
31 329.270111 0.000954 0.000000 0.001177 -81.588562 0.001177 329.270111
[L_Toe3_03]
29 439.137451 -0.001907 0.000954 -179.997742 73.589455 -179.994217 439.137451
30 439.137451 -0.001907 0.000954 -179.997757 73.537956 -179.994217 439.137451
31 439.137451 -0.001907 0.000954 -179.997711 73.686523 -179.994186 439.137451
[planeLockWeightLeft]
29 1000.000000 0.098192 0.076098 -0.011826 -0.004376 0.005620 1000.000000
30 1000.000000 0.098184 0.076100 -0.011826 -0.004376 0.005620 1000.000000
31 1000.000000 0.098176 0.076101 -0.011826 -0.004376 0.005620 1000.000000
[R_Leg01]
29 761.455627 -0.001907 -0.000358 133.636963 7.871737 41.724834 761.455688
30 761.455627 -0.001907 -0.000358 133.342010 10.256607 48.736469 761.455688
31 761.455627 -0.001907 -0.000358 136.307083 8.802343 43.348976 761.455688
[R_Leg02]
29 1441.140625 0.000000 -0.000238 0.215336 -0.178757 -111.425453 1441.140625
30 1441.140625 0.000000 -0.000238 -0.080967 0.004496 -120.486710 1441.140625
31 1441.140625 0.000000 -0.000238 -1.436384 0.133843 -133.683670 1441.140625
[R_Leg03]
29 1686.963989 0.000954 0.001431 -0.129184 0.007159 74.529068 1686.963989
30 1686.963989 0.000954 0.001431 -0.038943 0.010101 99.047913 1686.963989
31 1686.963989 0.000954 0.001431 0.018559 -0.007813 115.660782 1686.963989
[R_Foot]
29 3041.560059 -30.531288 -11.204481 23.165180 -38.029224 76.871315 3041.734131
30 3041.560059 -30.531288 -11.204481 16.991699 -32.419334 73.504662 3041.734131
31 3041.560059 -30.531288 -11.204481 8.682704 -18.995966 70.032707 3041.734131
[planeAlignerRight]
29 -146.004105 -725.421082 -230.151779 55.256039 -54.566620 -150.173248 774.934021
30 -90.302376 -650.677490 -262.864014 40.644970 -64.733582 -137.491837 707.554443
31 -63.561527 -575.891052 -329.855835 12.413965 -71.988503 -111.121849 666.704895
[R_Toe1_01]
29 -188.383347 -224.864899 21.052242 94.740936 33.587486 -150.812622 294.101532
30 -188.383347 -224.864899 21.052242 86.918983 27.776371 -156.957092 294.101532
31 -188.383347 -224.864899 21.052242 81.503029 23.164320 -152.991165 294.101532
[R_Toe2_01]
29 200.637817 -220.002121 -148.787384 -77.394447 -12.686428 -62.623920 332.857574
30 200.637817 -220.002121 -148.787384 -78.985710 -4.824427 -72.263741 332.857574
31 200.637817 -220.002121 -148.787384 -85.625763 -2.175327 -87.930222 332.857574
[R_Toe3_01]
29 188.606735 -220.092957 191.126343 -22.274466 -19.355135 -105.701469 347.192566
30 188.606735 -220.092957 191.126343 -42.356026 -10.575100 -106.248276 347.192566
31 188.606735 -220.092957 191.126343 -62.111885 -3.876822 -108.635262 347.192566
[planeLockWeightRight]
29 999.999695 0.000305 0.076046 -0.011823 -0.004379 -0.000027 999.999695
30 740.741028 -0.000305 0.076065 -0.011823 -0.004379 -0.000027 740.741028
31 259.259796 -0.000458 0.076294 -0.011823 -0.004379 -0.000027 259.259796
[R_Toe1_02]
29 413.762085 0.000477 -0.000119 0.001397 -24.239470 0.001397 413.762085
30 413.762085 0.000477 -0.000119 0.001405 -23.334763 0.001405 413.762085
31 413.762085 0.000477 -0.000119 0.001435 -19.725046 0.001435 413.762085
[R_Toe1_03]
29 464.317810 0.000000 0.001088 0.000664 37.064632 -0.003243 464.317810
30 464.317810 0.000000 0.001088 0.010301 76.915703 0.010301 464.317810
31 464.317810 0.000000 0.001088 -179.956268 88.551659 -179.952774 464.317810
[R_Toe2_02]
29 342.234741 -0.000954 0.000238 0.001192 -69.661613 0.001192 342.234741
30 342.234741 -0.000954 0.000238 -0.002340 -76.111649 -0.002340 342.234741
31 342.234741 -0.000954 0.000238 -0.002339 -76.640198 -0.002339 342.234741
[R_Toe2_03]
29 420.210846 0.000715 -0.000268 0.012038 78.810387 0.012038 420.210846
30 420.210846 0.000715 -0.000268 -179.988785 83.042412 -179.992279 420.210846
31 420.210846 0.000715 -0.000268 -179.990860 81.088577 -179.994354 420.210846
[R_Toe3_02]
29 329.270355 -0.000477 -0.000954 -0.002488 -48.062737 -0.002488 329.270355
30 329.270355 -0.000477 -0.000954 -0.002372 -66.604713 -0.002372 329.270355
31 329.270355 -0.000477 -0.000954 0.001189 -71.735359 0.001189 329.270355
[R_Toe3_03]
29 439.137939 0.000238 0.001431 0.006703 41.750931 -0.000960 439.137939
30 439.137939 0.000238 0.001431 0.005938 67.201431 0.005938 439.137939
31 439.137939 0.000238 0.001431 0.010391 77.029442 0.010391 439.137939
[Rear_Leg02]
29 1162.777710 -0.029802 0.005960 1.654787 -2.526926 -106.132813 1162.777710
30 1162.777710 -0.029802 0.005960 1.556022 -2.603355 -110.538574 1162.777710
31 1162.777710 -0.029802 0.005960 1.591166 -2.558831 -117.912224 1162.777710
[Rear_Leg03]
29 607.192505 -0.013351 -0.073195 0.010312 -0.005460 72.155075 607.192505
30 607.192505 -0.013351 -0.073195 0.010351 -0.005386 71.331108 607.192505
31 607.192505 -0.013351 -0.073195 0.010333 -0.005422 71.730835 607.192505
[Rear_Leg04]
29 995.874512 -0.020504 -0.011921 -0.041457 -0.015822 75.583031 995.874573
30 995.874512 -0.020504 -0.011921 -0.041173 -0.016546 73.575043 995.874573
31 995.874512 -0.020504 -0.011921 -0.041255 -0.016341 74.144257 995.874573
[Rear_Foot]
29 3096.176270 -0.067472 -0.041425 -165.582092 78.144539 6.214093 3096.176270
30 3096.176270 -0.067472 -0.041425 -167.937988 76.047234 7.408904 3096.176270
31 3096.176270 -0.067472 -0.041425 -168.580063 75.477798 8.238437 3096.176270
[planeAlignerCenter]
29 151.929001 6.018952 -663.244446 12.238894 12.380205 -179.928314 680.449707
30 148.554916 4.943240 -663.646545 12.239394 12.459002 -179.963181 680.088013
31 148.553635 4.942017 -663.640564 12.239841 12.537791 -179.998047 680.081909
[Rear_Toe1_01]
29 0.653352 83.966492 -371.173737 -17.489016 34.087986 76.836380 380.553192
30 0.653352 83.966492 -371.173737 -17.490698 34.085880 76.835854 380.553192
31 0.653352 83.966492 -371.173737 -17.492390 34.083839 76.835350 380.553192
[Rear_Toe2_01]
29 178.200760 -294.826019 -362.060547 4.241848 21.109842 -56.990620 499.765686
30 178.200760 -294.826019 -362.060547 4.241840 21.109802 -56.990604 499.765686
31 178.200760 -294.826019 -362.060547 4.241840 21.109802 -56.990604 499.765686
[Rear_Toe3_01]
29 -153.359680 -308.780914 -362.060852 18.495571 34.410652 -101.038521 499.952881
30 -153.359680 -308.780914 -362.060852 18.497570 34.409016 -101.038307 499.952881
31 -153.359680 -308.780914 -362.060852 18.499582 34.407421 -101.038109 499.952881
[planeLockWeightCenter]
29 843.748962 0.000305 0.076380 -0.011814 -0.004373 -0.000015 843.748962
30 999.999817 0.000305 0.076447 -0.011814 -0.004373 -0.000015 999.999817
31 1000.000122 0.000305 0.076444 -0.011814 -0.004373 -0.000015 1000.000122
[Rear_Toe1_02]
29 379.707825 0.194073 0.000477 -0.000335 -32.938210 0.006986 379.707855
30 379.707825 0.194073 0.000477 -0.000328 -32.852341 0.006983 379.707855
31 379.707825 0.194073 0.000477 -0.000322 -32.766407 0.006979 379.707855
[Rear_Toe1_03]
29 500.129700 0.165701 0.000119 -0.004048 60.258957 -0.000430 500.129761
30 500.129700 0.165701 0.000119 -0.004048 60.259052 -0.000431 500.129761
31 500.129700 0.165701 0.000119 -0.004048 60.259052 -0.000431 500.129761
[Rear_Toe2_02]
29 340.494507 0.000238 -0.000954 0.001192 -69.758034 0.001192 340.494507
30 340.494507 0.000238 -0.000954 0.001192 -69.758034 0.001192 340.494507
31 340.494507 0.000238 -0.000954 0.001192 -69.758034 0.001192 340.494507
[Rear_Toe2_03]
29 433.103577 0.000000 0.000238 0.006647 69.659683 0.006647 433.103546
30 433.103577 0.000000 0.000238 0.006647 69.659653 0.006647 433.103546
31 433.103577 0.000000 0.000238 0.006647 69.659653 0.006647 433.103546
[Rear_Toe3_02]
29 340.494141 -0.000358 -0.000477 0.001184 -74.630501 0.001184 340.494171
30 340.494141 -0.000358 -0.000477 0.001184 -74.630524 0.001184 340.494171
31 340.494141 -0.000358 -0.000477 0.001184 -74.630524 0.001184 340.494171
[Rear_Toe3_03]
29 433.103577 0.001431 -0.000238 0.010844 77.574097 0.010844 433.103546
30 433.103577 0.001431 -0.000238 0.010847 77.577263 0.010847 433.103546
31 433.103577 0.001431 -0.000238 0.010850 77.580444 0.010850 433.103546
[Back_Bone]
29 1312.175781 -701.934692 0.000954 0.000023 -0.000007 -85.606667 1488.125488
30 1312.175781 -701.934692 0.000954 0.000023 -0.000007 -85.606667 1488.125488
31 1312.175781 -701.934692 0.000954 0.000023 -0.000007 -85.606667 1488.125488
[Head]
29 1406.159424 809.709290 0.001431 0.000625 -1.475623 7.768026 1622.625488
30 1406.159424 809.709290 0.001431 0.000625 -1.475623 7.768025 1622.625488
31 1406.159424 809.709290 0.001431 0.000625 -1.475623 7.768026 1622.625488
[Motor_Bone]
29 1158.364380 -417.834747 0.000477 -0.097062 10.078456 -105.912094 1231.419434
30 1158.364380 -417.834747 0.000477 -0.080063 6.273417 -105.692520 1231.419434
31 1158.364380 -417.834747 0.000477 -0.077736 2.468342 -105.475189 1231.419434
[Ping_Mechanism]
29 1238.848511 -440.630524 -68.345619 0.000103 -0.000053 82.120995 1316.651855
30 1231.463501 -437.764282 -63.266018 0.000103 -0.000053 82.120995 1308.488770
31 1227.883911 -437.212524 -54.089584 0.000103 -0.000053 82.120995 1304.522705
[BN_LookIK]
29 193.241119 1380.371704 -0.002861 0.000000 89.965736 -31.038179 1393.832153
30 193.241119 1380.371704 -0.002861 0.000000 89.965736 -31.038179 1393.832153
31 193.241119 1380.371704 -0.002861 0.000000 89.965736 -31.038179 1393.832153
[bottomMouth]
29 -435.092926 615.759399 -0.000954 -0.000022 0.000016 73.527184 753.966492
30 -435.092926 615.759399 -0.000954 -0.000022 0.000016 73.527184 753.966492
31 -435.092926 615.759399 -0.000954 -0.000022 0.000016 73.527184 753.966492
[L_Mouth01]
29 554.440979 7.658243 838.222046 150.204178 23.759130 109.605339 1005.027161
30 554.440979 7.658243 838.222046 150.204178 23.759130 109.605339 1005.027161
31 554.440979 7.658243 838.222046 150.204178 23.759130 109.605339 1005.027161
[L_mouthFront]
29 551.629089 934.514771 339.150421 0.000081 2.804060 79.119301 1136.941284
30 551.629089 934.514771 339.150421 0.000081 2.804060 79.119301 1136.941284
31 551.629089 934.514771 339.150421 0.000081 2.804060 79.119301 1136.941284
[mouthGun]
29 55.332661 1627.420898 0.000000 0.000023 0.000009 -11.038128 1628.361328
30 55.332661 1627.420898 0.000000 0.000023 0.000009 -11.038128 1628.361328
31 55.332661 1627.420898 0.000000 0.000023 0.000009 -11.038128 1628.361328
[R_Mouth01]
29 554.442383 7.659197 -838.223938 29.795891 -23.759109 109.605331 1005.029541
30 554.442383 7.659197 -838.223938 29.795891 -23.759109 109.605331 1005.029541
31 554.442383 7.659197 -838.223938 29.795891 -23.759109 109.605331 1005.029541
[R_mouthFront]
29 551.629089 934.514282 -339.151367 0.000029 -2.803930 79.119133 1136.941162
30 551.629089 934.514282 -339.151367 0.000029 -2.803930 79.119133 1136.941162
31 551.629089 934.514282 -339.151367 0.000029 -2.803930 79.119133 1136.941162
[TopMouth]
29 461.269867 -56.106091 -0.008583 -0.000059 -0.000268 92.025169 464.669525
30 461.269867 -56.106091 -0.008583 -0.000059 -0.000268 92.025169 464.669525
31 461.269867 -56.106091 -0.008583 -0.000059 -0.000268 92.025169 464.669525
[weapon_bone]
29 -987.239868 1448.372803 0.001431 0.000000 89.965736 -31.038221 1752.833740
30 -987.239868 1448.372803 0.001431 0.000000 89.965736 -31.038221 1752.833740
31 -987.239868 1448.372803 0.001431 0.000000 89.965736 -31.038221 1752.833740
